<svg width="60" height="60" viewBox="0 0 60 60" fill="none" xmlns="http://www.w3.org/2000/svg">
<path d="M50.8861 16.4846C50.8876 18.0046 50.6759 19.5175 50.2572 20.9804H55.1787C57.843 20.9804 60 23.1084 60 25.7339V40.4622C60 44.1236 58.9542 47.7109 56.9825 50.8128C55.0107 53.9147 52.1928 56.4056 48.852 58C45.5111 59.5944 41.7824 60.2276 38.0934 59.8272C34.4044 59.4267 30.9045 58.0088 27.9949 55.7359L24.3949 59.2845C24.1863 59.5054 23.9348 59.6825 23.6553 59.8054C23.3758 59.9283 23.0741 59.9943 22.7682 59.9996C22.4622 60.005 22.1583 59.9495 21.8746 59.8364C21.5909 59.7233 21.3332 59.5551 21.1168 59.3416C20.9005 59.1281 20.7299 58.8739 20.6153 58.594C20.5007 58.3141 20.4444 58.0143 20.4498 57.7124C20.4552 57.4106 20.5222 57.113 20.6467 56.8372C20.7713 56.5615 20.9508 56.3133 21.1747 56.1075L24.7716 52.5558C23.563 51.0524 22.5864 49.3808 21.8734 47.5955C19.2248 48.1289 16.489 48.0744 13.8644 47.436C11.2397 46.7975 8.79186 45.5911 6.6981 43.9042C4.60435 42.2172 2.91712 40.092 1.75864 37.6823C0.600168 35.2726 -0.000551374 32.6389 3.7974e-07 29.972V16.5265C3.7974e-07 14.0209 2.05975 11.9888 4.59949 11.9888H18.0972C19.0902 8.53646 21.1976 5.49793 24.0996 3.33429C27.0016 1.17065 30.5398 9.30365e-06 34.1772 0H46.5114C48.9266 0 50.8861 1.93319 50.8861 4.31596V16.4846ZM22.6997 12.5343C25.2213 13.1658 27.5771 14.3214 29.6094 15.9238C31.6417 17.5261 33.3037 19.5383 34.484 21.8256C36.3541 21.2636 38.2983 20.9788 40.2532 20.9804H45.4481C46.0318 19.5515 46.3309 18.0251 46.3291 16.4846V4.49579H34.1772C31.6553 4.49582 29.1959 5.26953 27.1395 6.70977C25.0831 8.15001 23.5315 10.1855 22.6997 12.5343ZM31.2456 52.5289C33.5079 54.1726 36.1881 55.1652 38.988 55.396C41.7879 55.6269 44.5979 55.0871 47.1054 53.8366C49.613 52.5862 51.7199 50.6741 53.1918 48.3129C54.6637 45.9518 55.443 43.2341 55.443 40.4622V25.7339C55.443 25.7001 55.4363 25.6666 55.4231 25.6353C55.41 25.604 55.3908 25.5756 55.3665 25.5517C55.3423 25.5277 55.3135 25.5087 55.2818 25.4958C55.2501 25.4828 55.2161 25.4762 55.1818 25.4762H40.2532C37.4435 25.4762 34.6889 26.245 32.2956 27.6972C29.9023 29.1494 27.9642 31.2279 26.6967 33.7018C25.4292 36.1757 24.8821 38.948 25.1161 41.7103C25.3501 44.4727 26.3561 47.1168 28.0223 49.3488L40.9215 36.6257C41.1301 36.4049 41.3817 36.2277 41.6611 36.1049C41.9406 35.982 42.2424 35.916 42.5483 35.9106C42.8542 35.9053 43.1581 35.9608 43.4418 36.0739C43.7255 36.1869 43.9832 36.3552 44.1996 36.5687C44.416 36.7821 44.5865 37.0364 44.7011 37.3163C44.8157 37.5962 44.872 37.896 44.8666 38.1978C44.8612 38.4997 44.7942 38.7973 44.6697 39.0731C44.5452 39.3488 44.3656 39.597 44.1418 39.8028L31.2456 52.5289ZM20.5063 40.4622C20.5063 38.6878 20.7494 36.9674 21.199 35.3339L12.8203 27.0647C12.5964 26.8589 12.4168 26.6107 12.2923 26.335C12.1678 26.0592 12.1008 25.7616 12.0954 25.4598C12.09 25.1579 12.1463 24.8581 12.2609 24.5782C12.3755 24.2983 12.5461 24.0441 12.7624 23.8306C12.9788 23.6171 13.2365 23.4489 13.5202 23.3358C13.8039 23.2227 14.1078 23.1672 14.4137 23.1725C14.7197 23.1779 15.0214 23.2439 15.3009 23.3668C15.5804 23.4897 15.8319 23.6668 16.0405 23.8877L23.0825 30.8322C24.8062 27.8498 27.2944 25.367 30.2977 23.6329C29.1322 21.4734 27.3933 19.6674 25.2671 18.4082C23.141 17.149 20.7077 16.484 18.2278 16.4846H4.5843L4.56911 16.4966C4.56542 16.5011 4.56235 16.5062 4.56 16.5116L4.55696 16.5265V29.972C4.55669 31.9505 4.99764 33.9048 5.84854 35.6964C6.69943 37.488 7.93944 39.073 9.48063 40.3389C11.0218 41.6048 12.8264 42.5208 14.7665 43.0217C16.7066 43.5226 18.7346 43.5963 20.7068 43.2376C20.5736 42.3183 20.5066 41.3908 20.5063 40.4622Z" fill="#754E29"/>
</svg>
