<svg width="60" height="60" viewBox="0 0 60 60" fill="none" xmlns="http://www.w3.org/2000/svg">
<path d="M25.556 0.15438L25.5418 0.134367L25.5046 0.162956C11.1704 1.68674 0 13.8284 0 28.5889C0 35.1986 2.24151 41.2852 6.00495 46.1281V46.1338H6.01066C8.38977 49.2024 11.3693 51.7527 14.7669 53.6286C18.1644 55.5044 21.9086 56.6664 25.7702 57.0433C25.9044 55.6825 26.2356 54.2588 26.7325 52.8208C20.5724 52.3628 14.8202 49.5645 10.6536 44.9989C10.8106 44.3127 10.882 43.5151 10.9391 42.8232L10.9648 42.4859C11.0162 41.8569 11.0648 41.2509 11.1447 40.6391C11.3446 39.1324 11.6872 38.1261 12.2212 37.5572C12.9065 36.8224 13.6089 36.6995 15.0795 36.4394L15.345 36.3908C16.0989 36.2592 17.1068 36.0563 18.0777 35.5274C19.1142 34.9613 19.9908 34.0979 20.6504 32.8257C21.3157 31.5449 21.2672 30.2241 21.0844 29.1806C20.9182 28.3451 20.6989 27.521 20.4277 26.7134C20.3835 26.5725 20.3397 26.4315 20.2963 26.2903C19.711 24.3806 19.6396 23.4514 20.1222 22.7167C20.6476 21.9162 21.3671 21.7332 23.2403 21.2472L23.483 21.1872C25.3847 20.6955 27.9603 19.8721 29.4508 16.6902C31.067 13.2452 30.1561 9.35999 29.1653 6.7241C28.8528 5.89604 28.4973 5.08491 28.1002 4.29405C28.2516 4.28833 28.4029 4.28833 28.5542 4.28833C33.1382 4.28132 37.6295 5.58027 41.5036 8.03347C40.9553 8.76248 40.2215 9.72307 39.402 10.7494C37.6031 12.9994 35.5757 15.315 34.1937 16.3528C33.5573 16.8183 33.0741 17.4634 32.806 18.2054C32.5752 18.8799 32.5211 19.6024 32.6489 20.3038C32.8488 21.4931 33.4798 22.6081 34.0395 23.46C34.5049 24.1719 35.0532 24.8895 35.5129 25.4955L35.827 25.9044C36.0925 26.2617 36.3124 26.5562 36.4752 26.8106C36.558 26.9336 36.6179 27.0336 36.6579 27.108C36.6979 27.1794 36.7122 27.2166 36.715 27.2194C36.8292 27.5339 36.952 28.0485 37.0948 28.7632L37.1576 29.0663C38.4254 28.5002 39.7989 28.0657 41.2694 27.7941C41.1401 27.0959 40.9607 26.408 40.7326 25.7357C40.4185 24.8866 39.7361 23.9746 39.2449 23.3228C39.1216 23.1605 38.9979 22.9985 38.8737 22.8368C38.4359 22.275 38.0178 21.6981 37.6202 21.1072C37.1776 20.4325 36.9634 19.9665 36.8921 19.6834C38.7481 18.2483 41.0267 15.5781 42.7457 13.431C43.5909 12.3733 44.3447 11.3869 44.9072 10.6322C49.6169 14.923 52.4483 20.8989 52.7882 27.2652C54.4443 27.3967 55.8721 27.614 57.0999 27.8684C56.7173 12.4133 44.0849 0 28.5542 0C27.5434 0 26.5412 0.0514596 25.556 0.15438ZM6.95581 39.6842C5.25408 36.362 4.33953 32.692 4.28309 28.9588C4.22666 25.2257 5.02986 21.5296 6.63039 18.1574C8.23093 14.7852 10.5858 11.8274 13.5123 9.51344C16.4389 7.19949 19.8584 5.59156 23.5058 4.81436C24.1554 5.9037 24.7086 7.04779 25.1591 8.23359C26.0557 10.6208 26.4155 13.068 25.576 14.8662C24.9336 16.2327 24.0198 16.6187 22.4122 17.0332L21.9496 17.1476C20.4306 17.5164 18.0349 18.0939 16.5443 20.3581C14.8282 22.9654 15.6734 25.8214 16.2017 27.5482L16.373 28.0971C16.6014 28.8261 16.7728 29.3836 16.8641 29.9154C16.9726 30.5358 16.8927 30.7616 16.8527 30.8445C16.5672 31.3963 16.2816 31.6221 16.0303 31.7594C15.7162 31.9309 15.3051 32.0452 14.5969 32.1682C14.4827 32.191 14.3571 32.2111 14.2257 32.2311C12.9037 32.4483 10.8021 32.7943 9.09167 34.6325C7.70393 36.1192 7.19852 38.0918 6.95581 39.6842ZM28.5742 57.7638C28.7455 55.005 29.9877 51.64 32.095 48.4695C32.7774 47.3088 33.6198 46.1338 34.6249 44.9874C38.0127 41.1285 42.4885 38.3875 47.4628 37.1255C47.8305 37.0334 48.1466 36.7988 48.3415 36.4733C48.5364 36.1479 48.5942 35.7583 48.5022 35.3901C48.4102 35.022 48.1759 34.7056 47.8509 34.5104C47.5258 34.3153 47.1366 34.2574 46.769 34.3495C41.2312 35.7531 36.2484 38.8043 32.4776 43.1006C31.7152 43.9725 31.0213 44.8788 30.4045 45.7965C30.1234 44.851 29.9811 43.8697 29.9819 42.8833C29.9819 40.2617 31.3154 37.4142 33.4284 35.1557C35.8382 32.5888 39.0623 30.9379 42.5515 30.4843C50.5467 29.4265 55.5094 30.3128 58.4362 31.1333C58.8315 31.2442 59.1867 31.4665 59.4593 31.7737C59.732 32.081 59.9108 32.4602 59.9742 32.8663C60.0377 33.2724 59.9833 33.6882 59.8174 34.0642C59.6516 34.4402 59.3813 34.7605 59.0387 34.987C58.876 35.0957 58.6133 35.3587 58.2963 35.9591C57.9219 36.7163 57.6161 37.5057 57.3826 38.3176C57.1342 39.1296 56.8972 40.0072 56.6402 40.9621L56.4746 41.5682C56.1576 42.7403 55.8064 43.9982 55.3838 45.2447C54.55 47.7091 53.3736 50.3393 51.3948 52.3576C49.3417 54.4532 46.5548 55.7597 42.8313 55.7597C39.0365 55.7597 36.3867 54.2188 34.6934 52.4462C33.5398 54.5618 32.9402 56.5545 32.8488 58.0239C32.8048 58.5843 32.5428 59.1049 32.1192 59.4738C31.6955 59.8426 31.1442 60.0302 30.5839 59.996C30.0235 59.9619 29.4989 59.7089 29.1231 59.2914C28.7472 58.8739 28.5501 58.3253 28.5742 57.7638Z" fill="#754E29"/>
</svg>
