<svg width="66" height="65" viewBox="0 0 66 65" fill="none" xmlns="http://www.w3.org/2000/svg">
<path d="M29.7633 3.74877C30.7535 3.24665 31.8674 2.98315 33 2.98315C34.1326 2.98315 35.2465 3.24665 36.2367 3.74877L61.2867 16.4539C61.806 16.7176 62.2387 17.1033 62.5399 17.5711C62.8412 18.0388 63 18.5716 63 19.1142V44.1805C62.9997 45.2661 62.6816 46.3319 62.0785 47.2674C61.4754 48.2029 60.6093 48.9742 59.57 49.5012L36.2367 61.3419C35.2465 61.844 34.1326 62.1075 33 62.1075C31.8674 62.1075 30.7535 61.844 29.7633 61.3419L6.43 49.5012C5.39118 48.9744 4.52544 48.2037 3.92238 47.2687C3.31932 46.3338 3.00088 45.2687 3 44.1836V19.1142C2.99998 18.5716 3.15881 18.0388 3.46005 17.5711C3.76129 17.1033 4.19399 16.7176 4.71333 16.4539L29.7633 3.74877Z" stroke="#754E29" stroke-width="4.16667" stroke-linecap="round" stroke-linejoin="round"/>
<path d="M3 17.3254L33 32.5447M33 32.5447L63 17.3254M33 32.5447V62.9835" stroke="#754E29" stroke-width="4.16667" stroke-linejoin="round"/>
<path d="M18 24.9345L48 9.71515M13 33.5426L23 38.632" stroke="#754E29" stroke-width="4.16667" stroke-linecap="round" stroke-linejoin="round"/>
</svg>
