<svg width="22" height="23" viewBox="0 0 22 23" fill="none" xmlns="http://www.w3.org/2000/svg">
<path fill-rule="evenodd" clip-rule="evenodd" d="M16.0392 15.1244C17.2714 13.584 18.0082 11.6301 18.0082 9.5041C18.0082 4.53127 13.9769 0.5 9.0041 0.5C4.03127 0.5 0 4.53127 0 9.5041C0 14.4769 4.03127 18.5082 9.0041 18.5082C11.1301 18.5082 13.084 17.7714 14.6244 16.5392L20.2921 22.207C20.6828 22.5977 21.3163 22.5977 21.707 22.207C22.0977 21.8163 22.0977 21.1828 21.707 20.7921L16.0392 15.1244ZM9.0041 16.5173C5.1308 16.5173 1.99087 13.3774 1.99087 9.5041C1.99087 5.6308 5.1308 2.49087 9.0041 2.49087C12.8774 2.49087 16.0173 5.6308 16.0173 9.5041C16.0173 13.3774 12.8774 16.5173 9.0041 16.5173Z" fill="#151618"/>
</svg>
